<svg width="1200" height="800" viewBox="0 0 1200 800" fill="none" xmlns="http://www.w3.org/2000/svg">
  <rect width="1200" height="800" rx="40" fill="#f2f3f7" stroke="#d6dbe6" stroke-width="4"/>
  <rect x="24" y="24" width="1152" height="72" rx="36" fill="#ffffff" stroke="#d1d9e2" stroke-width="4"/>
  <circle cx="84" cy="60" r="18" fill="#ff9f1c"/>
  <circle cx="138" cy="60" r="18" fill="#2ec4b6"/>
  <circle cx="192" cy="60" r="18" fill="#f25f5c"/>
  <text x="260" y="70" fill="#8a95a8" font-size="28" font-family="Inter, sans-serif">Member discussion</text>
  <rect x="60" y="130" width="1080" height="540" rx="40" fill="#0f172a"/>
  <rect x="90" y="170" width="360" height="120" rx="28" fill="#192a4e"/>
  <rect x="90" y="310" width="360" height="120" rx="28" fill="#1f365d"/>
  <rect x="90" y="450" width="360" height="120" rx="28" fill="#273f6a"/>
  <rect x="470" y="170" width="640" height="360" rx="32" fill="#1d2c50"/>
  <rect x="490" y="200" width="220" height="30" rx="15" fill="#5e7cff"/>
  <rect x="490" y="250" width="520" height="20" rx="10" fill="#334170"/>
  <rect x="490" y="290" width="520" height="20" rx="10" fill="#334170"/>
  <rect x="490" y="330" width="520" height="20" rx="10" fill="#334170"/>
  <rect x="490" y="380" width="520" height="20" rx="10" fill="#334170"/>
  <text x="520" y="245" fill="#e5e8f0" font-size="20" font-family="Inter, sans-serif">Daily AI news & community chat snapshot</text>
  <rect x="90" y="600" width="360" height="70" rx="24" fill="#253a61"/>
  <text x="110" y="645" fill="#ffffff" font-size="22" font-family="Inter, sans-serif">14 new messages</text>
</svg>
