<svg width="1200" height="800" viewBox="0 0 1200 800" fill="none" xmlns="http://www.w3.org/2000/svg">
  <rect width="1200" height="800" rx="40" fill="#eef1f6" stroke="#d6dfe8" stroke-width="4"/>
  <rect x="24" y="24" width="1152" height="72" rx="36" fill="#ffffff" stroke="#d1d9e2" stroke-width="4"/>
  <circle cx="84" cy="60" r="18" fill="#f76c5e"/>
  <circle cx="138" cy="60" r="18" fill="#ffd166"/>
  <circle cx="192" cy="60" r="18" fill="#06d6a0"/>
  <text x="260" y="70" fill="#9aa6b6" font-size="28" font-family="Inter, sans-serif">Weekly workshop room</text>
  <rect x="60" y="130" width="1080" height="540" rx="40" fill="#1a2a47"/>
  <rect x="110" y="190" width="420" height="240" rx="32" fill="#3458a3"/>
  <rect x="620" y="190" width="420" height="240" rx="32" fill="#f7b733"/>
  <rect x="110" y="460" width="320" height="180" rx="32" fill="#35a29f"/>
  <rect x="460" y="460" width="320" height="180" rx="32" fill="#b05fba"/>
  <rect x="810" y="460" width="190" height="180" rx="32" fill="#ff8a55"/>
  <rect x="90" y="160" width="1040" height="450" rx="40" fill="url(#paint0_linear)" opacity="0.2"/>
  <defs>
    <linearGradient id="paint0_linear" x1="600" y1="160" x2="600" y2="610" gradientUnits="userSpaceOnUse">
      <stop offset="0" stop-color="#ffffff"/>
      <stop offset="1" stop-color="#1a2a47" stop-opacity="0"/>
    </linearGradient>
  </defs>
  <text x="140" y="225" fill="#fdfdfd" font-size="28" font-family="Inter, sans-serif" font-weight="700">AI workshop</text>
  <text x="140" y="270" fill="#dee3ec" font-size="20" font-family="Inter, sans-serif">Hands-on prompts, tools, and community Q&amp;A.</text>
</svg>
