<svg width="1200" height="800" viewBox="0 0 1200 800" fill="none" xmlns="http://www.w3.org/2000/svg">
  <rect width="1200" height="800" rx="40" fill="#f8f6f2" stroke="#e6d7c4" stroke-width="4"/>
  <rect x="20" y="20" width="1160" height="60" rx="30" fill="#ffffff" stroke="#d9c7b3" stroke-width="3"/>
  <circle cx="80" cy="50" r="16" fill="#ff6f61"/>
  <circle cx="120" cy="50" r="16" fill="#ffd166"/>
  <circle cx="160" cy="50" r="16" fill="#06d6a0"/>
  <rect x="220" y="30" width="300" height="20" rx="10" fill="#e9e0d7"/>
  <rect x="560" y="30" width="260" height="20" rx="10" fill="#e9e0d7"/>
  <rect x="250" y="120" width="700" height="490" rx="32" fill="#1b2447"/>
  <rect x="270" y="140" width="180" height="140" rx="24" fill="#5673de"/>
  <rect x="470" y="140" width="180" height="140" rx="24" fill="#ffa500"/>
  <rect x="670" y="140" width="180" height="140" rx="24" fill="#20c997"/>
  <rect x="270" y="310" width="180" height="140" rx="24" fill="#7b5dc7"/>
  <rect x="470" y="310" width="180" height="140" rx="24" fill="#3a86ff"/>
  <rect x="670" y="310" width="180" height="140" rx="24" fill="#ffb703"/>
  <rect x="270" y="480" width="580" height="80" rx="18" fill="#ffffff" opacity="0.55"/>
  <text x="290" y="535" fill="#fff" font-size="28" font-family="Inter, sans-serif" font-weight="700">Live session in progress</text>
  <text x="270" y="590" fill="#f4f1ec" font-size="20" font-family="Inter, sans-serif">14 active members sharing AI project updates.</text>
  <rect x="240" y="650" width="640" height="80" rx="20" fill="#fff" opacity="0.35"/>
  <text x="270" y="700" fill="#fff" font-size="18" font-family="Inter, sans-serif">Workshop: AI productivity workflows</text>
  <rect x="40" y="620" width="170" height="140" rx="28" fill="#ffffff" opacity="0.9"/>
  <text x="75" y="690" fill="#333" font-size="20" font-family="Inter, sans-serif">Chat</text>
  <rect x="60" y="660" width="130" height="12" rx="6" fill="#d7cab7"/>
  <rect x="60" y="684" width="95" height="12" rx="6" fill="#d7cab7"/>
</svg>
